<svg preserveAspectRatio="none" width="100%" height="100%" overflow="visible" style="display: block;" viewBox="0 0 20 20" fill="none" xmlns="http://www.w3.org/2000/svg">
<g id="Logo icon - instagram">
<path id="Logo vector 3" d="M3.31641 0.503906C2.68359 0.75 2.14844 1.07812 1.61328 1.61328C1.07812 2.14453 0.75 2.68359 0.503906 3.3125C0.265625 3.92187 0.105469 4.62109 0.0585938 5.64453C0.0117187 6.66797 0 6.99609 0 9.60547C0 12.2148 0.0117187 12.543 0.0585938 13.5664C0.105469 14.5898 0.269531 15.2891 0.503906 15.8984C0.75 16.5312 1.07812 17.0664 1.61328 17.6016C2.14844 18.1367 2.68359 18.4648 3.31641 18.7109C3.92578 18.9492 4.625 19.1094 5.64844 19.1562C6.67188 19.2031 7 19.2148 9.60938 19.2148C12.2188 19.2148 12.5469 19.2031 13.5703 19.1562C14.5937 19.1094 15.293 18.9453 15.9023 18.7109C16.5352 18.4648 17.0703 18.1367 17.6055 17.6016C18.1406 17.0664 18.4687 16.5312 18.7148 15.8984C18.9531 15.2891 19.1133 14.5898 19.1602 13.5664C19.207 12.543 19.2188 12.2148 19.2188 9.60547C19.2188 6.99609 19.207 6.66797 19.1602 5.64453C19.1133 4.62109 18.9492 3.92187 18.7148 3.3125C18.4687 2.68359 18.1406 2.14453 17.6094 1.61328C17.0742 1.07812 16.5391 0.75 15.9062 0.503906C15.2969 0.265625 14.5977 0.105469 13.5742 0.0585937C12.5508 0.0117187 12.2227 0 9.61328 0C7.00391 0 6.67578 0.0117187 5.65234 0.0585937C4.625 0.101562 3.92578 0.265625 3.31641 0.503906ZM13.4922 1.78516C14.4297 1.82812 14.9375 1.98437 15.2773 2.11719C15.7266 2.29297 16.0469 2.5 16.3828 2.83594C16.7187 3.17187 16.9258 3.49219 17.1016 3.94141C17.2344 4.28125 17.3906 4.78906 17.4336 5.72656C17.4805 6.73828 17.4883 7.04297 17.4883 9.60937C17.4883 12.1758 17.4766 12.4805 17.4336 13.4922C17.3906 14.4297 17.2344 14.9375 17.1016 15.2773C16.9258 15.7266 16.7187 16.0469 16.3828 16.3828C16.0469 16.7187 15.7266 16.9258 15.2773 17.1016C14.9375 17.2344 14.4297 17.3906 13.4922 17.4336C12.4805 17.4805 12.1758 17.4883 9.60938 17.4883C7.04297 17.4883 6.73828 17.4766 5.72656 17.4336C4.78906 17.3906 4.28125 17.2344 3.94141 17.1016C3.49219 16.9258 3.17188 16.7187 2.83594 16.3828C2.5 16.0469 2.29297 15.7266 2.11719 15.2773C1.98438 14.9375 1.82813 14.4297 1.78516 13.4922C1.73828 12.4805 1.73047 12.1758 1.73047 9.60937C1.73047 7.04297 1.74219 6.73828 1.78516 5.72656C1.82813 4.78906 1.98438 4.28125 2.11719 3.94141C2.29297 3.49219 2.5 3.17187 2.83594 2.83594C3.17188 2.5 3.49219 2.29297 3.94141 2.11719C4.28125 1.98437 4.78906 1.82812 5.72656 1.78516C6.73828 1.73828 7.04297 1.73047 9.60938 1.73047C12.1758 1.73047 12.4805 1.73828 13.4922 1.78516Z" fill="var(--fill-0, white)" style="fill:white;fill-opacity:1;"/>
<path id="Logo vector 2" d="M4.67611 9.60929C4.67611 12.3359 6.88705 14.5429 9.6097 14.5429C12.3324 14.5429 14.5433 12.3319 14.5433 9.60929C14.5433 6.88664 12.3363 4.6757 9.6097 4.6757C6.88314 4.6757 4.67611 6.88273 4.67611 9.60929ZM12.8128 9.60929C12.8128 11.3788 11.3792 12.8124 9.6097 12.8124C7.84017 12.8124 6.40658 11.3788 6.40658 9.60929C6.40658 7.83976 7.84017 6.40617 9.6097 6.40617C11.3792 6.40617 12.8128 7.83976 12.8128 9.60929Z" fill="var(--fill-0, white)" style="fill:white;fill-opacity:1;"/>
<path id="Logo vector 1" d="M14.7422 5.63281C15.3786 5.63281 15.8945 5.11689 15.8945 4.48047C15.8945 3.84405 15.3786 3.32812 14.7422 3.32812C14.1058 3.32812 13.5898 3.84405 13.5898 4.48047C13.5898 5.11689 14.1058 5.63281 14.7422 5.63281Z" fill="var(--fill-0, white)" style="fill:white;fill-opacity:1;"/>
</g>
</svg>
