<svg preserveAspectRatio="none" width="100%" height="100%" overflow="visible" style="display: block;" viewBox="0 0 24 24" fill="none" xmlns="http://www.w3.org/2000/svg">
<g id="material-symbols-light:arrow-back-rounded">
<path id="Vector" d="M6.921 12.5L12.36 17.939C12.4573 18.0363 12.5083 18.151 12.513 18.283C12.517 18.415 12.4637 18.536 12.353 18.646C12.2437 18.7527 12.126 18.807 12 18.809C11.8747 18.8103 11.7567 18.756 11.646 18.646L5.566 12.566C5.47867 12.478 5.41733 12.3887 5.382 12.298C5.34667 12.2073 5.329 12.108 5.329 12C5.329 11.892 5.34667 11.7927 5.382 11.702C5.41733 11.6113 5.47867 11.5223 5.566 11.435L11.646 5.354C11.7393 5.26067 11.853 5.21067 11.987 5.204C12.1217 5.19733 12.244 5.24733 12.354 5.354C12.464 5.464 12.519 5.58267 12.519 5.71C12.519 5.838 12.464 5.957 12.354 6.067L6.92 11.5H18.5C18.6427 11.5 18.7617 11.5477 18.857 11.643C18.9523 11.7383 19 11.8573 19 12C19 12.1427 18.9523 12.2617 18.857 12.357C18.7617 12.4523 18.6427 12.5 18.5 12.5H6.921Z" fill="var(--fill-0, white)" style="fill:white;fill-opacity:1;"/>
</g>
</svg>
