<svg preserveAspectRatio="none" width="100%" height="100%" overflow="visible" style="display: block;" viewBox="0 0 20 15" fill="none" xmlns="http://www.w3.org/2000/svg">
<path id="Subtract" d="M10 2.22494e-09C10.0014 7.58713e-09 16.2496 -0.000414825 17.8135 0.419922C18.2382 0.535718 18.6252 0.761915 18.9355 1.07422C19.2458 1.38649 19.469 1.77479 19.582 2.2002C19.9973 3.76011 20 7.00101 20 7.04492C20 7.04492 20.0001 10.3201 19.582 11.8906C19.469 12.316 19.2458 12.7043 18.9355 13.0166C18.6252 13.3289 18.2382 13.5541 17.8135 13.6699C16.25 14.0903 10.0014 14.0908 10 14.0908C10 14.0908 3.75022 14.0904 2.18652 13.6699C1.76177 13.5541 1.37476 13.3289 1.06445 13.0166C0.754221 12.7043 0.531023 12.316 0.417969 11.8906C-0.000148867 10.3201 0 7.04492 0 7.04492C1.91217e-05 7.00101 0.00270697 3.76011 0.417969 2.2002C0.531019 1.77479 0.754241 1.38649 1.06445 1.07422C1.37476 0.761915 1.76177 0.535718 2.18652 0.419922C3.7506 -0.000462186 10 2.22494e-09 10 2.22494e-09ZM8.31348 9.66016L13.541 6.68555L8.31348 3.71191V9.66016Z" fill="var(--fill-0, white)" style="fill:white;fill-opacity:1;"/>
</svg>
